<?xml version="1.0" encoding="utf-8"?>
<!-- Generator: Adobe Illustrator 24.1.2, SVG Export Plug-In . SVG Version: 6.00 Build 0)  -->
<svg version="1.1" id="Layer_1" xmlns="http://www.w3.org/2000/svg" xmlns:xlink="http://www.w3.org/1999/xlink" x="0px" y="0px"
	 viewBox="0 0 80 80" style="enable-background:new 0 0 80 80;" xml:space="preserve">
<style type="text/css">
	.st0{fill:#409648;}
	.st1{fill:#DFE9E1;}
</style>
<g>
	<path class="st0" d="M14.16,80h51.69C73.66,80,80,73.66,80,65.84V14.16C80,6.34,73.66,0,65.84,0H14.16C6.34,0,0,6.34,0,14.16v51.69
		C0,73.66,6.34,80,14.16,80z"/>
	<g>
		<path class="st1" d="M52.55,46.97c0.5,0.12,0.99,0.35,1.49,0.36c2.02,0.04,4.05,0.02,6.08,0.02c1.63,0,2.4,0.54,2.38,1.65
			c-0.02,1.05-0.85,1.6-2.45,1.61c-1.1,0-2.2,0-3.29,0c-0.03,0.14-0.06,0.28-0.09,0.42c0.48,0.13,0.95,0.35,1.43,0.36
			c2.12,0.04,4.25,0.03,6.37,0.01c1.16-0.01,2.08,0.36,2.09,1.65c0,1.3-0.93,1.66-2.09,1.64c-1.2-0.02-2.39-0.01-3.96-0.01
			c1.34,1.38,2.48,2.5,3.56,3.68c0.69,0.75,0.7,1.61-0.05,2.32c-0.69,0.65-1.49,0.59-2.23,0c-0.08-0.06-0.14-0.13-0.21-0.2
			c-5.32-5.32-10.68-10.6-15.93-15.99c-2.32-2.38-3.23-5.43-3.23-8.74c0-5.65,0-11.29,0-16.94c0-1.33-0.58-2.25-1.89-2.55
			c-1.19-0.27-2.1,0.26-2.6,1.34c-0.21,0.46-0.21,1.03-0.21,1.55c-0.01,5.31-0.07,10.62,0.01,15.92c0.06,4.26-1.41,7.76-4.46,10.74
			c-4.77,4.65-9.43,9.4-14.14,14.1c-0.24,0.24-0.47,0.49-0.73,0.71c-0.77,0.65-1.6,0.75-2.33,0.02c-0.72-0.73-0.68-1.62,0.03-2.32
			c1.12-1.1,2.32-2.11,3.49-3.15c-0.1-0.16-0.21-0.32-0.31-0.48c-1.28,0-2.56-0.01-3.84,0c-1.16,0.01-1.92-0.54-1.9-1.69
			c0.02-1.09,0.82-1.58,1.87-1.58c2.17-0.01,4.34,0.01,6.51-0.02c0.5-0.01,1-0.2,1.5-0.31c-0.02-0.16-0.04-0.32-0.06-0.48
			c-1.22,0-2.43-0.01-3.65,0c-1.17,0.02-2.08-0.38-2.08-1.66c0-1.3,0.94-1.63,2.1-1.61c2.07,0.03,4.15,0.03,6.22-0.01
			c0.53-0.01,1.05-0.24,1.58-0.36c-0.03-0.15-0.06-0.31-0.08-0.46c-1.28,0-2.57,0-3.85,0c-1.14,0-1.88-0.47-1.86-1.7
			c0.02-1.19,0.81-1.55,1.84-1.55c2.12-0.01,4.25,0.08,6.37-0.05c0.72-0.04,1.58-0.43,2.08-0.95c1.71-1.79,2.39-4.02,2.38-6.49
			c-0.01-5.69-0.03-11.39,0.01-17.08c0.02-2.6,1.39-4.56,3.62-5.42c2.17-0.83,4.61-0.25,6.22,1.51c1.03,1.13,1.42,2.47,1.41,3.98
			c-0.03,5.5-0.01,11-0.01,16.5c0,2.59,0.56,5.02,2.39,6.93c0.52,0.55,1.44,0.95,2.2,1c2.07,0.14,4.15,0.06,6.22,0.05
			c1.13-0.01,1.96,0.45,1.94,1.64c-0.01,1.16-0.8,1.66-1.95,1.63c-1.25-0.03-2.5-0.01-3.76-0.01
			C52.63,46.66,52.59,46.81,52.55,46.97z"/>
		<path class="st1" d="M10.85,34.1C9.94,33.25,9,32.42,8.1,31.55c-0.76-0.73-0.97-1.63-0.21-2.44c0.81-0.86,1.72-0.69,2.53,0.12
			c1.54,1.53,3.06,3.08,4.62,4.59c0.37,0.36,0.86,0.59,1.3,0.87c0.1-0.12,0.2-0.25,0.3-0.37c-0.88-0.9-1.76-1.81-2.66-2.68
			c-0.85-0.83-1.17-1.74-0.23-2.63c0.88-0.82,1.76-0.47,2.53,0.32c1.49,1.51,2.98,3.02,4.51,4.5c0.37,0.35,0.86,0.57,1.3,0.86
			c0.18-0.21,0.36-0.42,0.55-0.62c-0.95-0.79-1.92-1.55-2.84-2.37c-0.86-0.76-1.24-1.72-0.31-2.63c0.91-0.9,1.84-0.51,2.65,0.31
			c1.39,1.4,2.79,2.8,4.19,4.2c1.22,1.21,2.31,1.22,3.29-0.22c0.48-0.7,0.73-1.69,0.74-2.55c0.07-4.25,0-8.49,0.04-12.74
			c0.05-4.98,3.63-8.93,8.56-9.55c4.72-0.59,9.23,2.53,10.43,7.27c0.21,0.83,0.25,1.72,0.26,2.58c0.03,4.2,0.02,8.4,0.02,12.59
			c0,1.35,0.42,2.47,1.63,3.18c0.77,0.46,1.45,0.53,2.17-0.25c1.4-1.52,2.91-2.96,4.39-4.41c1.07-1.05,2.04-1.21,2.75-0.41
			c0.94,1.06,0.42,1.95-0.44,2.75c-0.85,0.78-1.71,1.54-2.57,2.32c0.11,0.16,0.23,0.32,0.34,0.48c0.41-0.23,0.89-0.39,1.21-0.71
			c1.53-1.48,3-3.01,4.51-4.5c1.02-1,2.08-1.12,2.77-0.3c0.85,1.02,0.39,1.87-0.43,2.64c-0.87,0.82-1.73,1.65-2.6,2.47
			c0.1,0.14,0.21,0.28,0.31,0.42c0.43-0.25,0.92-0.43,1.26-0.76c1.53-1.47,3.03-2.98,4.51-4.49c0.81-0.82,1.72-1.24,2.64-0.32
			c0.92,0.91,0.54,1.84-0.32,2.62c-0.89,0.81-1.78,1.61-2.68,2.41c0.07,0.15,0.13,0.3,0.2,0.45c1.26,0,2.53-0.02,3.79,0.01
			c0.52,0.01,1.19-0.07,1.53,0.2c0.49,0.4,1.02,1.1,1.01,1.66c-0.01,0.46-0.77,0.92-1.22,1.36c-0.08,0.08-0.28,0.06-0.42,0.06
			c-7.24-0.01-14.48,0.07-21.71-0.08c-3.44-0.07-5.87-2.92-5.89-6.48c-0.03-4.44,0.03-8.88-0.02-13.32
			c-0.03-2.68-1.74-4.95-4.22-5.84c-2.44-0.88-5.09-0.21-6.86,1.75c-1.11,1.23-1.65,2.69-1.65,4.36c0,4.2,0.01,8.4,0,12.59
			c-0.01,4.41-2.59,7.01-7.02,7.02c-6.61,0.02-13.22,0.01-19.83,0c-0.24,0-0.48,0-0.72-0.01c-0.99-0.05-1.68-0.46-1.73-1.54
			c-0.05-1.17,0.71-1.64,1.73-1.71c1.01-0.07,2.03-0.02,3.04-0.02c0.51,0,1.02,0,1.54,0C10.72,34.39,10.79,34.25,10.85,34.1z"/>
		<path class="st1" d="M41.58,50.97c0.26,0.43,0.46,0.93,0.8,1.29c1.47,1.53,2.98,3.02,4.49,4.51c0.84,0.83,1.15,1.75,0.26,2.65
			c-0.86,0.86-1.76,0.53-2.51-0.29c-0.84-0.92-1.68-1.85-2.52-2.77c-0.16,0.11-0.32,0.23-0.48,0.34c0.25,0.45,0.42,0.98,0.77,1.34
			c1.47,1.53,2.98,3.02,4.49,4.51c0.82,0.82,1.17,1.75,0.25,2.64c-0.86,0.84-1.78,0.51-2.54-0.28c-0.83-0.87-1.62-1.78-2.43-2.68
			c-0.15,0.06-0.31,0.11-0.46,0.17c0,0.67,0,1.35,0,2.02c0,1.54,0,3.09,0,4.63c0,1.71-0.57,2.54-1.7,2.52
			c-1.11-0.02-1.63-0.83-1.63-2.58c0-2.2,0-4.41,0-6.61c-0.12-0.08-0.25-0.16-0.37-0.23c-0.86,0.93-1.73,1.85-2.59,2.78
			c-0.78,0.84-1.69,1.05-2.53,0.24c-0.86-0.83-0.59-1.73,0.21-2.53c1.54-1.53,3.08-3.06,4.59-4.62c0.33-0.34,0.53-0.8,0.79-1.21
			c-0.12-0.1-0.23-0.2-0.35-0.29c-0.92,0.9-1.84,1.81-2.77,2.71c-0.81,0.79-1.71,0.99-2.53,0.1c-0.76-0.82-0.53-1.67,0.23-2.42
			c1.54-1.53,3.09-3.05,4.59-4.61c0.35-0.36,0.56-0.86,0.84-1.3c-0.19-0.16-0.39-0.32-0.58-0.49c-0.83,0.97-1.64,1.95-2.5,2.89
			c-0.76,0.84-1.68,1.05-2.53,0.21c-0.85-0.85-0.58-1.75,0.2-2.54c1.46-1.47,2.99-2.89,4.36-4.43c0.49-0.54,0.88-1.39,0.89-2.11
			c0.07-8.2,0.05-16.4,0.05-24.6c0-0.34-0.03-0.68,0.01-1.01c0.11-0.93,0.61-1.52,1.59-1.55c0.99-0.03,1.5,0.57,1.66,1.48
			c0.08,0.47,0.06,0.96,0.06,1.44c0,8.05-0.02,16.11,0.04,24.16c0.01,0.75,0.42,1.65,0.93,2.23c1.3,1.48,2.77,2.82,4.17,4.22
			c0.8,0.79,1.23,1.66,0.36,2.66c-0.74,0.85-1.65,0.74-2.73-0.34c-0.84-0.84-1.62-1.75-2.42-2.63
			C41.9,50.73,41.74,50.85,41.58,50.97z"/>
	</g>
</g>
</svg>
